<?xml version="1.0" encoding="utf-8"?>
<!-- Generator: Adobe Illustrator 14.0.0, SVG Export Plug-In . SVG Version: 6.00 Build 43363)  -->
<!DOCTYPE svg PUBLIC "-//W3C//DTD SVG 1.1//EN" "http://www.w3.org/Graphics/SVG/1.1/DTD/svg11.dtd">
<svg version="1.1" id="Layer_1" xmlns="http://www.w3.org/2000/svg" xmlns:xlink="http://www.w3.org/1999/xlink" x="0px" y="0px"
	 width="920px" height="680px" viewBox="0 0 920 680" enable-background="new 0 0 920 680" xml:space="preserve">
<g id="background">
	
		<linearGradient id="SVGID_1_" gradientUnits="userSpaceOnUse" x1="459.9102" y1="595.2012" x2="459.9101" y2="-84.7983" gradientTransform="matrix(1 0 0 1 0.0898 84.7988)">
		<stop  offset="0" style="stop-color:#84D1EE"/>
		<stop  offset="0.503" style="stop-color:#FFFFFF"/>
		<stop  offset="0.573" style="stop-color:#EBF6FE"/>
		<stop  offset="0.7168" style="stop-color:#B6DEFB"/>
		<stop  offset="0.9202" style="stop-color:#62B9F7"/>
		<stop  offset="1" style="stop-color:#3FA9F5"/>
	</linearGradient>
	<rect fill="url(#SVGID_1_)" width="920" height="680"/>
	<polygon fill="#B3B3B3" stroke="#CCCCCC" stroke-width="1.5682" points="411.459,510.671 683.134,613.202 625.099,679.333 
		354.29,679.333 217.35,618.966 	"/>
</g>
<g id="logo">
	<line fill="none" stroke="#999999" stroke-width="1.0454" x1="312.862" y1="611.915" x2="454.322" y2="676.187"/>
	<g>
		
			<linearGradient id="SVGID_2_" gradientUnits="userSpaceOnUse" x1="494.355" y1="435.7949" x2="408.9556" y2="618.9344" gradientTransform="matrix(1 0 0 1 0.0898 84.7988)">
			<stop  offset="0" style="stop-color:#CCCCCC"/>
			<stop  offset="0.0986" style="stop-color:#E1E1E1"/>
			<stop  offset="0.2166" style="stop-color:#F2F2F2"/>
			<stop  offset="0.3453" style="stop-color:#FCFCFC"/>
			<stop  offset="0.503" style="stop-color:#FFFFFF"/>
			<stop  offset="0.6423" style="stop-color:#FBFBFB"/>
			<stop  offset="0.7816" style="stop-color:#EFEFEF"/>
			<stop  offset="0.9204" style="stop-color:#DBDBDB"/>
			<stop  offset="1" style="stop-color:#CCCCCC"/>
		</linearGradient>
		<polygon fill="url(#SVGID_2_)" stroke="#666666" stroke-width="1.0454" points="412.962,506.751 684.637,609.282 622.969,679.554 
			365.187,679.554 218.854,615.046 		"/>
		
			<text transform="matrix(0.5387 0.2232 -0.5821 0.8131 407.7378 533.1543)" font-family="'FranklinGothic-HeavyItalic'" font-size="23.2549">Work Time Sheet</text>
		<line fill="none" stroke="#999999" stroke-width="1.0454" x1="406.931" y1="548.712" x2="597.514" y2="627.314"/>
		<line fill="none" stroke="#999999" stroke-width="1.0454" x1="392.344" y1="562.555" x2="579.786" y2="643.033"/>
		<line fill="none" stroke="#999999" stroke-width="1.0454" x1="374.707" y1="573.782" x2="562.804" y2="658.562"/>
		<line fill="none" stroke="#999999" stroke-width="1.0454" x1="352.594" y1="586.192" x2="546.252" y2="673.699"/>
		<line fill="none" stroke="#999999" stroke-width="1.0454" x1="334.333" y1="597.292" x2="507.968" y2="677.567"/>
		<line fill="none" stroke="#666666" stroke-width="1.0454" x1="494.845" y1="679.554" x2="494.508" y2="679.554"/>
		<line fill="none" stroke="#666666" stroke-width="1.0454" x1="573.248" y1="605.872" x2="494.845" y2="677.567"/>
		<line fill="none" stroke="#666666" stroke-width="1.0454" x1="605.699" y1="619.337" x2="542.021" y2="677.567"/>
		
			<text transform="matrix(0.4318 0.1893 -0.7305 0.683 569.7778 611.584)" font-family="'FranklinGothic-MediumItalic'" font-size="25.4188">Hours</text>
	</g>
	<g id="g2956" transform="translate(-11.316947,-12.866278)">
		<g id="g2958" transform="matrix(2.396429,0,0,2.396429,-440.3068,-2735.148)">
			
				<linearGradient id="p0_1_" gradientUnits="userSpaceOnUse" x1="348.4931" y1="1011.4837" x2="236.2522" y2="899.7639" gradientTransform="matrix(12.1204 0 0 -15.6269 -3919.1409 17045.6797)">
				<stop  offset="0" style="stop-color:#4DAD2C"/>
				<stop  offset="1" style="stop-color:#E3FF86"/>
			</linearGradient>
			<path id="p0" fill="url(#p0_1_)" stroke="#000000" stroke-width="1.6974" d="M208.18,1259.421l78.189-18.044l24.058,6.015
				l-6.015,96.231l-72.173,30.074l-24.059-18.045V1259.421L208.18,1259.421z"/>
			
				<linearGradient id="path2961_1_" gradientUnits="userSpaceOnUse" x1="350.9255" y1="1037.4504" x2="472.5861" y2="1037.4504" gradientTransform="matrix(6.1718 0 0 -30.6882 -1971.5518 33153.1875)">
				<stop  offset="0" style="stop-color:#FFFFFF"/>
				<stop  offset="1" style="stop-color:#FFFFFF;stop-opacity:0"/>
			</linearGradient>
			<path id="path2961" fill="url(#path2961_1_)" d="M210.658,1261.455v92.146l21.824,16.369v-100.027
				C221.307,1269.813,213.133,1264.585,210.658,1261.455L210.658,1261.455z"/>
			
				<linearGradient id="p2_2_" gradientUnits="userSpaceOnUse" x1="335.6572" y1="937.8135" x2="326.1775" y2="950.8652" gradientTransform="matrix(26.9536 0 0 -7.027 -8775.8096 7848.481)">
				<stop  offset="0" style="stop-color:#D9D9B4"/>
				<stop  offset="1" style="stop-color:#A3A36B"/>
			</linearGradient>
			<path id="p2" fill="url(#p2_2_)" stroke="#000000" stroke-width="1.6974" stroke-opacity="0.1961" d="M215.967,1259.982
				c3.248,3.294,8.596,6.287,16.044,6.58l72.598-19.841l-15.643-3.763L215.967,1259.982z"/>
			
				<linearGradient id="path2964_1_" gradientUnits="userSpaceOnUse" x1="343.4946" y1="994.4397" x2="347.3195" y2="905.0367" gradientTransform="matrix(13.6434 0 0 -13.8828 -4417.7109 15040.2646)">
				<stop  offset="0" style="stop-color:#FFFFFF"/>
				<stop  offset="1" style="stop-color:#FFFFFF;stop-opacity:0"/>
			</linearGradient>
			<path id="path2964" fill="url(#path2964_1_)" d="M235.817,1270.004l70.019-19.521l-1.272,41.587
				c-2.405,45.547-52.762-31.968-68.746,27.583v-49.649H235.817z"/>
			
				<linearGradient id="p4_1_" gradientUnits="userSpaceOnUse" x1="343.5718" y1="1008.1725" x2="359.223" y2="1038.4148" gradientTransform="matrix(10.2867 0 0 -18.4127 -3318.3662 19877.209)">
				<stop  offset="0" style="stop-color:#FF0B00"/>
				<stop  offset="1" style="stop-color:#810500"/>
			</linearGradient>
			<path id="p4" fill="url(#p4_1_)" stroke="#000000" stroke-width="1.6974" stroke-opacity="0.3922" d="M208.504,1276.862
				c6.001,5.801,14.703,10.102,23.705,9.902l-0.3,34.207c-7.902-0.8-18.804-4.9-23.105-11.402L208.504,1276.862L208.504,1276.862z"
				/>
			
				<linearGradient id="path2967_1_" gradientUnits="userSpaceOnUse" x1="342.1914" y1="1003.2614" x2="345.2721" y2="973.5034" gradientTransform="matrix(11.4789 0 0 -16.5004 -3708.9839 17831.9336)">
				<stop  offset="0" style="stop-color:#FFFFFF"/>
				<stop  offset="1" style="stop-color:#FFFFFF;stop-opacity:0"/>
			</linearGradient>
			<path id="path2967" fill="url(#path2967_1_)" d="M210.532,1281.637c3.677,4.244,12.846,7.985,19.07,7.561
				c0,6.224,1.119,15.121-1.92,17.167c-5.762,3.877-8.98-17.493-16.901-6.656C210.497,1293.908,210.814,1287.436,210.532,1281.637
				L210.532,1281.637z"/>
			<g id="p6">
				
					<linearGradient id="p2_3_" gradientUnits="userSpaceOnUse" x1="335.6572" y1="937.8135" x2="326.1775" y2="950.8652" gradientTransform="matrix(26.9536 0 0 -7.027 -8775.8096 7848.481)">
					<stop  offset="0" style="stop-color:#D9D9B4"/>
					<stop  offset="1" style="stop-color:#A3A36B"/>
				</linearGradient>
				<path id="p2_1_" fill="url(#p2_3_)" stroke="#000000" stroke-width="1.6974" stroke-opacity="0.1961" d="M215.967,1259.982
					c3.248,3.294,8.596,6.287,16.044,6.58l72.598-19.841l-15.643-3.763L215.967,1259.982z"/>
			</g>
		</g>
		<g id="g2970" transform="matrix(2.396429,0,0,2.396429,-440.3068,-2735.148)" display="none">
			
				<radialGradient id="p7_2_" cx="339.5947" cy="926.7922" r="75.5848" gradientTransform="matrix(11.5879 -2.5 0.2516 -6.9609 -3866.387 8660.6768)" gradientUnits="userSpaceOnUse">
				<stop  offset="0" style="stop-color:#000000;stop-opacity:0.3922"/>
				<stop  offset="1" style="stop-color:#000000;stop-opacity:0"/>
			</radialGradient>
			<path id="p7" display="inline" fill="url(#p7_2_)" d="M365.654,1346.662c-0.762,21.112-29.872,44.373-65.018,51.954
				c-35.146,7.583-63.02-3.386-62.257-24.5c0.762-21.112,29.872-44.372,65.017-51.954
				C338.543,1314.581,366.416,1325.55,365.654,1346.662z"/>
			<g id="use2973" transform="matrix(0.989851,-0.142114,0.122312,0.85192,-145.3651,225.5584)" display="inline">
				
					<radialGradient id="p7_3_" cx="382.4928" cy="889.3756" r="75.6357" gradientTransform="matrix(11.1215 -3.8829 -0.2593 -4.4971 -3718.8281 6858.8135)" gradientUnits="userSpaceOnUse">
					<stop  offset="0" style="stop-color:#000000;stop-opacity:0.3922"/>
					<stop  offset="1" style="stop-color:#000000;stop-opacity:0"/>
				</radialGradient>
				<path id="p7_1_" fill="url(#p7_3_)" d="M365.744,1353.314c1.829,18.094-24.141,42.048-58.003,53.501
					c-33.862,11.453-62.794,6.07-64.621-12.024c-1.827-18.094,24.142-42.048,58.003-53.502
					C334.984,1329.836,363.916,1335.22,365.744,1353.314z"/>
			</g>
		</g>
		<g id="g2975" transform="matrix(2.396429,0,0,2.396429,-440.3068,-2735.148)">
			
				<linearGradient id="p9_1_" gradientUnits="userSpaceOnUse" x1="341.22" y1="977.9814" x2="351.1668" y2="1070.7676" gradientTransform="matrix(16.184 0 0 -11.7027 -5249.6401 12849.0898)">
				<stop  offset="0" style="stop-color:#B6E8FF"/>
				<stop  offset="1" style="stop-color:#2389DB"/>
			</linearGradient>
			<path id="p9" fill="url(#p9_1_)" stroke="#000000" stroke-width="1.6974" d="M203.015,1354.804l90.218-36.086l60.145,36.086
				v24.058l-90.218,48.118l-60.145-48.118V1354.804L203.015,1354.804z"/>
			
				<linearGradient id="p10_2_" gradientUnits="userSpaceOnUse" x1="334.8248" y1="953.196" x2="431.9444" y2="953.196" gradientTransform="matrix(20.8461 0 0 -9.0858 -6776.0952 10050.2412)">
				<stop  offset="0" style="stop-color:#D9D9B4"/>
				<stop  offset="1" style="stop-color:#A3A36B"/>
			</linearGradient>
			<path id="p10" fill="url(#p10_2_)" stroke="#000000" stroke-width="3.3949" stroke-opacity="0.1961" d="M352.213,1357.24
				l-89.116,45.467l-58.804-43.346l-0.607,15.156l59.713,47.588l88.266-46.679L352.213,1357.24L352.213,1357.24z"/>
			
				<linearGradient id="path2979_1_" gradientUnits="userSpaceOnUse" x1="336.3228" y1="938.0497" x2="373.0466" y2="809.8046" gradientTransform="matrix(22.2266 0 0 -8.5212 -7228.0942 9306.5088)">
				<stop  offset="0" style="stop-color:#FFFFFF"/>
				<stop  offset="1" style="stop-color:#FFFFFF;stop-opacity:0"/>
			</linearGradient>
			<path id="path2979" fill="url(#path2979_1_)" d="M210.18,1355.856l82.818-34.207l54.613,33.608
				c-10.603,5.4-26.381,12.954-36.009,14.403C268.428,1376.157,282.196,1347.455,210.18,1355.856z"/>
			
				<linearGradient id="p12_1_" gradientUnits="userSpaceOnUse" x1="340.9495" y1="953.3345" x2="340.9495" y2="1009.768" gradientTransform="matrix(18.7475 0 0 -10.1029 -6088.876 10997.957)">
				<stop  offset="0" style="stop-color:#FF0B00"/>
				<stop  offset="1" style="stop-color:#810500"/>
			</linearGradient>
			<path id="p12" fill="url(#p12_1_)" stroke="#000000" stroke-width="1.6974" stroke-opacity="0.3922" d="M292.68,1325.17
				l-26.309,11.033l47.952,29.28l25.463-11.032L292.68,1325.17z"/>
			<g id="p13">
				
					<linearGradient id="p10_3_" gradientUnits="userSpaceOnUse" x1="334.8248" y1="953.196" x2="431.9444" y2="953.196" gradientTransform="matrix(20.8461 0 0 -9.0858 -6776.0952 10050.2412)">
					<stop  offset="0" style="stop-color:#D9D9B4"/>
					<stop  offset="1" style="stop-color:#A3A36B"/>
				</linearGradient>
				<path id="p10_1_" fill="url(#p10_3_)" stroke="#000000" stroke-width="3.3949" stroke-opacity="0.1961" d="M352.213,1357.24
					l-89.116,45.467l-58.804-43.346l-0.607,15.156l59.713,47.588l88.266-46.679L352.213,1357.24L352.213,1357.24z"/>
			</g>
			
				<linearGradient id="path2983_1_" gradientUnits="userSpaceOnUse" x1="340.6522" y1="936.9994" x2="327.0933" y2="949.8342" gradientTransform="matrix(20.8461 0 0 -9.0858 -6776.0952 9910.2412)">
				<stop  offset="0" style="stop-color:#FFFFFF"/>
				<stop  offset="1" style="stop-color:#FFFFFF;stop-opacity:0"/>
			</linearGradient>
			<path id="path2983" fill="url(#path2983_1_)" d="M352.213,1357.24l-89.116,45.467l0.303,19.398l88.266-46.679L352.213,1357.24
				L352.213,1357.24z"/>
			
				<linearGradient id="path2985_1_" gradientUnits="userSpaceOnUse" x1="335.45" y1="937.109" x2="348.1866" y2="945.8158" gradientTransform="matrix(20.8461 0 0 -9.0858 -6776.0952 9910.2412)">
				<stop  offset="0" style="stop-color:#FFFFFF"/>
				<stop  offset="1" style="stop-color:#FFFFFF;stop-opacity:0"/>
			</linearGradient>
			<path id="path2985" fill="url(#path2985_1_)" d="M263.097,1402.707l-58.804-43.346l-0.607,15.156l59.713,47.588L263.097,1402.707
				z"/>
			
				<linearGradient id="p16_1_" gradientUnits="userSpaceOnUse" x1="339.903" y1="988.9939" x2="348.2716" y2="1031.2896" gradientTransform="matrix(12.4861 0 0 -15.1687 -4039.0046 16415.8105)">
				<stop  offset="0" style="stop-color:#FF0B00"/>
				<stop  offset="1" style="stop-color:#810500"/>
			</linearGradient>
			<path id="p16" fill="url(#p16_1_)" stroke="#000000" stroke-width="1.6974" d="M209.905,1370.044
				c5.698,4.71,11.396,9.421,17.094,14.131c-7.17,2.387-8.4,28.536-24.058,30.074c2.663-8.949,2.78-14.079,2.897-20.904
				c-4.126,2.51-10.799,4.594-14.926,2.86C202.335,1387.909,203.573,1371.55,209.905,1370.044L209.905,1370.044z"/>
			
				<linearGradient id="path2988_1_" gradientUnits="userSpaceOnUse" x1="339.6656" y1="987.0843" x2="339.7397" y2="952.5914" gradientTransform="matrix(13.2827 0 0 -14.2595 -4299.7031 15443.1895)">
				<stop  offset="0" style="stop-color:#FFFFFF"/>
				<stop  offset="1" style="stop-color:#FFFFFF;stop-opacity:0"/>
			</linearGradient>
			<path id="path2988" fill="url(#path2988_1_)" d="M208.219,1374.057c-1.6,1.084-3.54,7.505-5.841,12.106
				c5.402-5.301,7.383,12.14,12.602,11.702c3.093-0.261,4.957-7.353,6.529-11.557C222.965,1382.416,210.71,1372.37,208.219,1374.057
				z"/>
			
				<linearGradient id="path2990_1_" gradientUnits="userSpaceOnUse" x1="341.5935" y1="958.4333" x2="318.3758" y2="862.3618" gradientTransform="matrix(18.7475 0 0 -10.1029 -6088.876 10997.957)">
				<stop  offset="0" style="stop-color:#FFFFFF"/>
				<stop  offset="1" style="stop-color:#FFFFFF;stop-opacity:0"/>
			</linearGradient>
			<path id="path2990" fill="url(#path2990_1_)" d="M292.469,1327.717l-21.218,8.699c20.299-6.224,31.835,10.088,43.497,19.52
				c8.076,6.533,25.179-1.626,13.367-7.001L292.469,1327.717z"/>
		</g>
	</g>
	<g id="g3291" transform="matrix(1.0733557,0,0,1.0733557,-120.84695,6.016723)">
		<g id="g116" transform="matrix(0.470249,0,0,0.470249,247.6427,22.93711)">
			
				<linearGradient id="path137_1_" gradientUnits="userSpaceOnUse" x1="-901.7071" y1="-1268.0448" x2="-901.7072" y2="-653.5396" gradientTransform="matrix(0.1286 0 0 -0.1286 397.5778 711.8068)">
				<stop  offset="0.0056" style="stop-color:#ED0000"/>
				<stop  offset="0.5449" style="stop-color:#8D0000"/>
				<stop  offset="1" style="stop-color:#BD0000"/>
			</linearGradient>
			<path id="path137" fill="url(#path137_1_)" d="M-42.963,567.671c0,178.997,145.625,324.623,324.626,324.623
				c178.991,0,324.613-145.626,324.613-324.623c0-178.999-145.622-324.628-324.613-324.628
				C102.662,243.046-42.963,388.674-42.963,567.671z"/>
			
				<linearGradient id="path158_1_" gradientUnits="userSpaceOnUse" x1="-901.6771" y1="-1267.6075" x2="-901.6771" y2="-653.084" gradientTransform="matrix(0.1286 0 0 -0.1286 397.5778 711.8068)">
				<stop  offset="0.0056" style="stop-color:#FF4242"/>
				<stop  offset="0.573" style="stop-color:#FF9494"/>
				<stop  offset="1" style="stop-color:#FFDCDC"/>
			</linearGradient>
			<path id="path158" fill="url(#path158_1_)" d="M-23.438,567.671c0,168.228,136.867,305.095,305.098,305.095
				c168.23,0,305.097-136.867,305.097-305.095c0-168.231-136.867-305.103-305.097-305.103S-23.438,399.442-23.438,567.671z"/>
			
				<linearGradient id="path179_1_" gradientUnits="userSpaceOnUse" x1="-901.6616" y1="-1171.7854" x2="-901.6616" y2="-582.1611" gradientTransform="matrix(0.1286 0 0 -0.1286 397.5778 711.8068)">
				<stop  offset="0" style="stop-color:#FFFFFF"/>
				<stop  offset="0.5" style="stop-color:#FF0000"/>
				<stop  offset="1" style="stop-color:#FFC9C9"/>
			</linearGradient>
			<path id="path179" fill="url(#path179_1_)" d="M-13.133,567.671c0,162.559,132.252,294.779,294.793,294.779
				c162.552,0,294.796-132.22,294.796-294.779c0-162.544-132.244-294.792-294.796-294.792
				C119.119,272.879-13.133,405.128-13.133,567.671z"/>
			<path id="path181" opacity="0.8" fill="#FFFFFF" enable-background="new    " d="M281.66,309.709
				c-148.041,0-268.494,120.429-268.494,268.491c0,148.033,120.453,268.46,268.494,268.46c148.053,0,268.487-120.43,268.487-268.46
				C550.15,430.139,429.713,309.709,281.66,309.709z"/>
			<path id="path183" fill="#8D0000" d="M13.166,567.671c0,148.052,120.453,268.462,268.494,268.462
				c148.053,0,268.487-120.41,268.487-268.462c0-148.043-120.434-268.486-268.487-268.486
				C133.619,299.185,13.166,419.628,13.166,567.671z"/>
			
				<radialGradient id="path210_1_" cx="-1257.4785" cy="717.6891" r="724.7224" gradientTransform="matrix(0.1824 0 0 -0.1824 511.0476 698.5784)" gradientUnits="userSpaceOnUse">
				<stop  offset="0.6011" style="stop-color:#FFFFFF"/>
				<stop  offset="0.8764" style="stop-color:#EAEAF0"/>
				<stop  offset="0.9142" style="stop-color:#E6E6ED"/>
				<stop  offset="0.95" style="stop-color:#DBDBE5"/>
				<stop  offset="0.9849" style="stop-color:#C8C8D7"/>
				<stop  offset="1" style="stop-color:#BDBDCF"/>
			</radialGradient>
			<path id="path210" fill="url(#path210_1_)" d="M19.742,567.671c0,144.411,117.494,261.898,261.919,261.898
				c144.423,0,261.926-117.487,261.926-261.898c0-144.42-117.5-261.916-261.926-261.916
				C137.237,305.755,19.742,423.254,19.742,567.671z"/>
			<path id="path212" fill="#771111" d="M41.415,559.106c-2.911,0-5.28,2.366-5.28,5.282v6.559c0,2.918,2.369,5.278,5.28,5.278
				H87.44c2.915,0,5.273-2.36,5.273-5.278v-6.559c0-2.916-2.358-5.282-5.273-5.282H41.415z"/>
			<rect id="rect214" x="41.415" y="564.388" fill="#A00000" width="46.025" height="6.559"/>
			<path id="path216" fill="#771111" d="M474.447,559.106c-2.911,0-5.278,2.366-5.278,5.282v6.559c0,2.918,2.367,5.278,5.278,5.278
				h46.04c2.922,0,5.278-2.36,5.278-5.278v-6.559c0-2.916-2.358-5.282-5.278-5.282H474.447L474.447,559.106z"/>
			<rect id="rect218" x="474.447" y="564.388" fill="#A00000" width="46.04" height="6.559"/>
			<path id="path220" fill="#771111" d="M278.376,755.179c-2.917,0-5.277,2.374-5.277,5.278v46.03c0,2.904,2.36,5.264,5.277,5.264
				h6.576c2.912,0,5.28-2.36,5.28-5.264v-46.03c0-2.904-2.368-5.278-5.28-5.278H278.376L278.376,755.179z"/>
			<rect id="rect222" x="278.376" y="760.457" fill="#A00000" width="6.576" height="46.03"/>
			<path id="path224" fill="#771111" d="M278.376,322.147c-2.917,0-5.277,2.363-5.277,5.278v46.019c0,2.916,2.36,5.279,5.277,5.279
				h6.576c2.912,0,5.28-2.363,5.28-5.279v-46.019c0-2.915-2.368-5.278-5.28-5.278H278.376L278.376,322.147z"/>
			<rect id="rect226" x="278.376" y="327.425" fill="#A00000" width="6.576" height="46.019"/>
			
				<linearGradient id="path412_1_" gradientUnits="userSpaceOnUse" x1="-1112.1864" y1="1211.7683" x2="-1059.052" y2="1211.7683" gradientTransform="matrix(0.1286 0 0 -0.1286 397.5778 711.8068)">
				<stop  offset="0" style="stop-color:#FFFFFF"/>
				<stop  offset="1" style="stop-color:#585868"/>
			</linearGradient>
			<path id="path412" fill="url(#path412_1_)" d="M302.079,560.886c-2.858-8.559-10.926-14.751-20.424-14.751
				c-11.162,0-20.36,8.532-21.424,19.423C274.312,566.574,288.555,565.502,302.079,560.886z"/>
		</g>
		<g id="g3285" transform="matrix(0.983242,-0.182303,0.182303,0.983242,-10.45843,57.70537)">
			<path id="path7082" fill="none" stroke="#E0E0E0" stroke-width="20.0813" stroke-linecap="round" stroke-linejoin="round" d="
				M285.756,208.466l54.467,94.341"/>
			<path id="path8059" fill="none" stroke="#BFBFBF" stroke-width="20.0813" stroke-linecap="round" stroke-linejoin="round" d="
				M340.221,193.871l0.001,108.935"/>
			<path id="path8061" fill="none" stroke="#808080" stroke-width="20.0813" stroke-linecap="round" stroke-linejoin="round" d="
				M394.693,208.467l-54.47,94.34"/>
			<path id="path8063" fill="none" stroke="#000000" stroke-width="20.0813" stroke-linecap="round" stroke-linejoin="round" d="
				M268.248,261.251l71.98,41.557l94.339-54.47"/>
		</g>
	</g>
	<g>
		<g>
			<path fill="#313431" d="M401.957,362.77c5.159,2.862,8.884,5.938,11.176,9.229c2.29,3.288,2.956,6.381,2,9.275
				c-0.788,2.389-2.329,4.139-4.622,5.253c-2.298,1.109-4.688,1.256-7.18,0.434c-2.461-0.813-4.273-2.37-5.438-4.677
				c-1.169-2.307-1.352-4.665-0.554-7.083c0.69-2.089,1.94-3.706,3.749-4.848c1.81-1.142,3.964-1.563,6.457-1.27
				c-2.025-1.926-4.295-3.521-6.811-4.782l-11.743,15.89c6.708,8.701,10.499,14.474,11.371,17.31
				c0.872,2.838,0.883,5.539,0.036,8.105c-1.794,5.435-6.074,9.532-12.836,12.299c-6.762,2.765-15.575,2.569-26.436-0.586
				l-5.022,6.686l-2.583-0.854l4.994-6.446c-0.85-0.215-1.998-0.562-3.442-1.035c-0.863-0.286-1.543-0.544-2.046-0.776l-4.949,6.461
				l-2.399-0.793l5.128-6.848c-5.538-2.755-9.576-5.95-12.108-9.585c-2.533-3.635-3.291-7.004-2.267-10.106
				c0.75-2.27,2.278-3.948,4.585-5.045c2.303-1.092,4.67-1.235,7.1-0.435c2.461,0.813,4.271,2.354,5.433,4.623
				c1.159,2.271,1.333,4.631,0.524,7.077c-1.409,4.27-4.831,6.267-10.266,5.995c2.747,2.628,5.497,4.58,8.25,5.852l14.701-19.727
				c-6.229-7.686-9.755-12.972-10.573-15.856c-0.823-2.885-0.859-5.463-0.11-7.729c1.656-5.017,5.713-8.595,12.166-10.732
				c6.453-2.14,14.3-1.915,23.543,0.674l3.317-4.316l2.446,0.809l-3.319,4.316l0.324,0.106c1.291,0.426,2.942,1.104,4.957,2.031
				l3.528-4.645l2.536,0.839L401.957,362.77z M371.749,398.783l-3.302-4.568l-14.233,18.938l1.523,0.503
				c1.752,0.58,3.13,0.953,4.131,1.117L371.749,398.783z M362.59,415.371c3.938,0.771,7.147,0.739,9.625-0.102
				c2.475-0.835,4.087-2.39,4.836-4.658c0.827-2.509-0.378-5.721-3.622-9.638L362.59,415.371z M390.382,360.788
				c-3.14-0.705-5.702-0.808-7.675-0.301c-1.977,0.508-3.215,1.521-3.717,3.044c-0.661,2.001,0.376,4.793,3.117,8.378
				L390.382,360.788z M398.226,363.377l-2.323-0.866l-0.876-0.29c-0.831-0.271-1.595-0.494-2.292-0.655l-9.058,12.253l3.602,4.27
				L398.226,363.377z"/>
		</g>
		<g>
			<path fill="#808080" d="M400.709,361.02c5.16,2.862,8.887,5.938,11.18,9.229c2.29,3.287,2.956,6.381,2,9.273
				c-0.789,2.39-2.329,4.14-4.624,5.252c-2.297,1.112-4.688,1.258-7.18,0.436c-2.46-0.813-4.273-2.37-5.438-4.677
				c-1.168-2.307-1.352-4.665-0.553-7.083c0.689-2.09,1.939-3.706,3.75-4.846c1.808-1.143,3.96-1.563,6.457-1.271
				c-2.025-1.926-4.295-3.521-6.813-4.784l-11.742,15.89c6.709,8.703,10.497,14.476,11.37,17.313
				c0.872,2.836,0.883,5.538,0.034,8.104c-1.793,5.434-6.072,9.531-12.834,12.298c-6.763,2.765-15.577,2.567-26.435-0.586
				l-5.022,6.686l-2.583-0.854l4.994-6.446c-0.851-0.213-1.999-0.562-3.444-1.037c-0.862-0.284-1.542-0.541-2.047-0.774
				l-4.949,6.461l-2.396-0.79l5.129-6.851c-5.538-2.755-9.576-5.95-12.108-9.583c-2.537-3.637-3.292-7.006-2.267-10.107
				c0.749-2.271,2.276-3.951,4.584-5.046c2.304-1.092,4.671-1.235,7.101-0.435c2.46,0.813,4.27,2.353,5.43,4.623
				c1.162,2.271,1.335,4.631,0.528,7.077c-1.41,4.27-4.831,6.269-10.266,5.995c2.747,2.63,5.497,4.58,8.249,5.852l14.701-19.725
				c-6.231-7.688-9.755-12.974-10.573-15.857c-0.822-2.886-0.858-5.464-0.109-7.73c1.657-5.017,5.713-8.595,12.165-10.732
				c6.455-2.14,14.302-1.915,23.542,0.674l3.319-4.315l2.444,0.808l-3.317,4.317l0.322,0.105c1.293,0.426,2.944,1.104,4.956,2.033
				l3.531-4.646l2.536,0.839L400.709,361.02z M370.504,397.033l-3.302-4.567l-14.233,18.938l1.521,0.504
				c1.755,0.578,3.133,0.95,4.133,1.114L370.504,397.033z M361.342,413.621c3.942,0.771,7.15,0.739,9.626-0.1
				c2.477-0.837,4.088-2.391,4.837-4.657c0.829-2.508-0.379-5.724-3.62-9.64L361.342,413.621z M389.137,359.038
				c-3.143-0.705-5.703-0.806-7.674-0.301c-1.978,0.509-3.215,1.521-3.719,3.044c-0.661,2.002,0.377,4.793,3.118,8.378
				L389.137,359.038z M396.98,361.627l-2.325-0.866l-0.876-0.29c-0.829-0.271-1.593-0.493-2.29-0.655l-9.059,12.253l3.603,4.271
				L396.98,361.627z"/>
		</g>
	</g>
	<g>
		<g>
			<path fill="#313431" d="M457.405,416.344c6.411,3.563,11.047,7.383,13.895,11.478c2.849,4.088,3.678,7.931,2.487,11.528
				c-0.979,2.973-2.896,5.146-5.75,6.528c-2.853,1.384-5.823,1.563-8.925,0.541c-3.059-1.011-5.313-2.947-6.761-5.813
				c-1.45-2.865-1.679-5.803-0.688-8.809c0.858-2.598,2.412-4.604,4.66-6.024c2.25-1.417,4.927-1.941,8.026-1.576
				c-2.52-2.396-5.342-4.378-8.466-5.943L441.284,438c8.344,10.822,13.056,17.997,14.141,21.523
				c1.082,3.524,1.096,6.888,0.043,10.075c-2.232,6.756-7.554,11.853-15.958,15.289c-8.406,3.439-19.363,3.194-32.868-0.729
				l-6.243,8.311l-3.21-1.06l6.207-8.013c-1.056-0.27-2.483-0.698-4.278-1.29c-1.071-0.355-1.919-0.678-2.544-0.966l-6.151,8.032
				l-2.981-0.984l6.372-8.515c-6.883-3.426-11.901-7.396-15.052-11.916c-3.152-4.519-4.088-8.707-2.813-12.564
				c0.932-2.821,2.83-4.91,5.696-6.271c2.865-1.357,5.806-1.539,8.827-0.543c3.059,1.011,5.312,2.929,6.753,5.748
				c1.441,2.822,1.661,5.756,0.657,8.799c-1.752,5.309-6.008,7.792-12.765,7.453c3.416,3.271,6.833,5.694,10.253,7.277
				l18.277-24.525c-7.743-9.555-12.125-16.125-13.145-19.715c-1.022-3.586-1.064-6.791-0.133-9.611
				c2.059-6.234,7.098-10.681,15.124-13.344c8.021-2.658,17.776-2.379,29.269,0.837l4.127-5.364l3.036,1.005l-4.123,5.364
				l0.398,0.133c1.604,0.528,3.661,1.374,6.162,2.527l4.389-5.772l3.152,1.044L457.405,416.344z M419.851,461.114l-4.104-5.679
				l-17.698,23.541l1.895,0.627c2.179,0.723,3.89,1.185,5.14,1.391L419.851,461.114z M408.461,481.739
				c4.896,0.96,8.886,0.919,11.968-0.124c3.079-1.04,5.084-2.974,6.015-5.793c1.029-3.116-0.474-7.11-4.504-11.98L408.461,481.739z
				 M443.018,413.877c-3.908-0.878-7.089-1.001-9.548-0.372c-2.454,0.629-3.996,1.891-4.62,3.784
				c-0.821,2.486,0.472,5.958,3.877,10.415L443.018,413.877z M452.766,417.098l-2.887-1.078l-1.093-0.357
				c-1.031-0.341-1.98-0.612-2.846-0.816l-11.264,15.232l4.48,5.309L452.766,417.098z"/>
		</g>
		<g>
			<path fill="#666666" d="M455.852,414.169c6.413,3.559,11.049,7.384,13.895,11.474c2.849,4.09,3.68,7.933,2.487,11.53
				c-0.979,2.971-2.896,5.147-5.748,6.53c-2.853,1.382-5.827,1.562-8.925,0.541c-3.059-1.011-5.313-2.948-6.763-5.815
				c-1.45-2.863-1.681-5.801-0.688-8.807c0.857-2.598,2.412-4.606,4.662-6.023c2.248-1.42,4.925-1.942,8.028-1.579
				c-2.521-2.395-5.344-4.378-8.472-5.941l-14.6,19.749c8.341,10.821,13.054,17.995,14.139,21.521
				c1.08,3.526,1.096,6.888,0.04,10.077c-2.229,6.753-7.549,11.851-15.957,15.288c-8.404,3.438-19.361,3.195-32.864-0.728
				l-6.244,8.311l-3.212-1.062l6.208-8.015c-1.056-0.268-2.484-0.696-4.279-1.29c-1.072-0.354-1.92-0.674-2.545-0.964L388.866,487
				l-2.981-0.983l6.372-8.515c-6.883-3.425-11.899-7.396-15.049-11.917c-3.154-4.517-4.09-8.707-2.815-12.565
				c0.932-2.818,2.83-4.907,5.695-6.27c2.864-1.357,5.807-1.539,8.827-0.543c3.059,1.013,5.311,2.929,6.752,5.75
				c1.441,2.822,1.664,5.754,0.659,8.797c-1.752,5.31-6.01,7.792-12.767,7.453c3.416,3.269,6.834,5.694,10.255,7.277l18.276-24.525
				c-7.744-9.555-12.125-16.123-13.144-19.713c-1.022-3.588-1.065-6.793-0.135-9.613c2.059-6.231,7.099-10.681,15.125-13.342
				c8.021-2.66,17.776-2.381,29.267,0.835l4.126-5.363l3.039,1.002l-4.125,5.366l0.4,0.133c1.604,0.529,3.661,1.374,6.162,2.53
				l4.386-5.774l3.155,1.041L455.852,414.169z M418.297,458.935l-4.103-5.675l-17.699,23.541l1.895,0.625
				c2.179,0.723,3.893,1.185,5.14,1.393L418.297,458.935z M406.909,479.56c4.896,0.96,8.886,0.921,11.965-0.12
				c3.08-1.044,5.084-2.974,6.018-5.795c1.029-3.116-0.474-7.11-4.504-11.979L406.909,479.56z M441.464,411.704
				c-3.908-0.878-7.091-1.003-9.544-0.374c-2.456,0.629-3.996,1.892-4.62,3.784c-0.821,2.485,0.469,5.958,3.873,10.416
				L441.464,411.704z M451.214,414.922l-2.891-1.078l-1.089-0.357c-1.031-0.343-1.98-0.612-2.847-0.816l-11.267,15.234l4.481,5.308
				L451.214,414.922z"/>
		</g>
	</g>
</g>
<g id="text">
	<g>
		<path fill="#000047" stroke="#FFFFFF" stroke-width="2.0909" d="M499.765,81.152h-26.973V57.475h82.798v23.679h-27.442v82.014
			h-28.383V81.152z"/>
		<path fill="#000047" stroke="#FFFFFF" stroke-width="2.0909" d="M625.531,144.35c0,7.684,0.313,14.897,1.255,18.818h-25.402
			l-1.568-6.743h-0.471c-5.488,6.116-13.172,8.468-21.483,8.468c-15.682,0-25.402-11.448-25.402-24.307
			c0-20.699,18.505-29.794,44.69-29.951v-0.627c0-3.136-2.352-6.586-12.545-6.586c-8.154,0-16.779,2.823-21.797,5.802l-5.021-18.034
			c5.021-2.509,15.995-6.9,31.99-6.9c26.502,0,35.754,14.741,35.754,34.029V144.35L625.531,144.35z M598.089,127.883
			c-11.447,0-18.034,3.293-18.034,10.036c0,4.861,3.294,7.37,7.998,7.37c4.077,0,8.468-2.823,9.723-7.057
			c0.313-1.254,0.313-2.666,0.313-4.077V127.883z"/>
		<path fill="#000047" stroke="#FFFFFF" stroke-width="2.0909" d="M643.565,139.487c4.391,2.666,14.427,5.802,21.483,5.802
			c5.959,0,8.312-1.411,8.312-4.234c0-2.823-1.726-4.077-10.036-6.743c-16.937-5.332-22.736-14.583-22.582-23.522
			c0-15.368,13.018-26.502,33.245-26.502c9.565,0,18.033,2.039,23.052,4.391l-4.548,19.131c-3.604-1.725-10.818-4.234-17.093-4.234
			c-4.861,0-7.684,1.254-7.684,4.391c0,2.509,2.509,4.077,11.604,7.057c15.211,5.018,21.013,12.859,21.17,23.993
			c0,14.741-11.448,25.875-35.284,25.875c-10.663,0-20.229-2.353-26.345-5.489L643.565,139.487z"/>
		<path fill="#000047" stroke="#FFFFFF" stroke-width="2.0909" d="M741.888,117.376h0.313c1.727-3.45,3.293-6.586,5.02-9.409
			l12.702-21.954h33.715l-26.658,31.049l30.579,46.104h-34.813l-15.211-29.481l-5.646,7.527v21.954H713.66V51.83h28.229V117.376
			L741.888,117.376z"/>
		<path fill="#000047" stroke="#FFFFFF" stroke-width="2.0909" d="M499.765,217.061h-26.973v-23.679h82.798v23.679h-27.442v82.014
			h-28.383V217.061z"/>
		<path fill="#000047" stroke="#FFFFFF" stroke-width="2.0909" d="M591.815,200.598c0,7.527-5.646,13.486-14.584,13.486
			c-8.782,0-14.271-5.959-14.271-13.486c0-7.684,5.646-13.329,14.427-13.329C586.17,187.268,591.658,192.913,591.815,200.598z
			 M563.274,299.077v-77.153h28.229v77.153H563.274z"/>
		<path fill="#000047" stroke="#FFFFFF" stroke-width="2.0909" d="M609.065,248.11c0-10.193-0.313-19.131-0.627-26.188h23.679
			l1.1,9.566h0.628c2.821-3.764,9.563-11.291,22.736-11.291c9.881,0,17.563,4.548,20.855,12.232h0.313
			c3.138-3.92,6.587-7.057,10.663-9.095c3.922-2.039,8.47-3.137,13.645-3.137c16.622,0,26.188,12.075,26.188,33.402v45.476h-27.44
			v-41.242c0-9.566-2.823-15.054-9.098-15.054c-4.548,0-7.368,2.979-8.625,6.586c-0.627,1.568-0.782,4.078-0.782,5.646v44.065
			h-27.442V257.05c0-8.625-2.666-14.27-8.938-14.27c-5.176,0-7.526,3.764-8.625,6.429c-0.782,1.725-0.782,3.764-0.782,5.646v44.222
			h-27.443L609.065,248.11L609.065,248.11z"/>
		<path fill="#000047" stroke="#FFFFFF" stroke-width="2.0909" d="M768.547,270.378c0.938,6.116,9.879,9.565,19.759,9.565
			c7.37,0,14.27-0.783,21.17-2.979l3.604,18.818c-9.252,3.764-19.286,5.018-28.854,5.018c-27.129,0-42.497-15.054-42.497-39.517
			c0-18.034,11.604-41.085,39.987-41.085c24.934,0,35.598,18.348,35.598,39.518c0,4.704-0.628,8.782-1.098,10.663L768.547,270.378
			L768.547,270.378z M791.285,251.247c0-4.391-2.039-12.545-10.978-12.545c-8.313,0-11.604,7.684-12.074,12.545H791.285z"/>
		<path fill="#000047" stroke="#FFFFFF" stroke-width="2.0909" d="M830.174,247.955c0-12.231-0.313-19.602-0.627-26.031h24.147
			l0.941,13.957h0.627c4.077-11.761,13.956-15.682,20.543-15.682c2.509,0,3.604,0,5.645,0.471v26.501
			c-2.038-0.47-4.231-0.784-7.213-0.784c-8.312,0-13.957,3.45-15.368,9.722c-0.313,1.412-0.471,2.979-0.471,4.861v38.106h-28.227
			L830.174,247.955L830.174,247.955z"/>
	</g>
</g>
</svg>
