<?xml version="1.0" encoding="utf-8"?>
<!-- Generator: Adobe Illustrator 14.0.0, SVG Export Plug-In . SVG Version: 6.00 Build 43363)  -->
<!DOCTYPE svg PUBLIC "-//W3C//DTD SVG 1.1//EN" "http://www.w3.org/Graphics/SVG/1.1/DTD/svg11.dtd">
<svg version="1.1" xmlns="http://www.w3.org/2000/svg" xmlns:xlink="http://www.w3.org/1999/xlink" x="0px" y="0px" width="440px"
	 height="280px" viewBox="0 0 440 280" enable-background="new 0 0 440 280" xml:space="preserve">
<g id="background">
	<linearGradient id="SVGID_1_" gradientUnits="userSpaceOnUse" x1="220.0005" y1="280" x2="220.0005" y2="4.882813e-004">
		<stop  offset="0" style="stop-color:#84D1EE"/>
		<stop  offset="0.503" style="stop-color:#FFFFFF"/>
		<stop  offset="0.573" style="stop-color:#EBF6FE"/>
		<stop  offset="0.7168" style="stop-color:#B6DEFB"/>
		<stop  offset="0.9202" style="stop-color:#62B9F7"/>
		<stop  offset="1" style="stop-color:#3FA9F5"/>
	</linearGradient>
	<rect fill="url(#SVGID_1_)" width="440" height="280"/>
	<polygon fill="#B3B3B3" stroke="#CCCCCC" stroke-width="0.75" points="199.352,199.336 329.283,248.373 301.527,280 172.01,280 
		106.517,251.129 	"/>
	<linearGradient id="SVGID_2_" gradientUnits="userSpaceOnUse" x1="237.4453" y1="203.9766" x2="196.6023" y2="291.5647">
		<stop  offset="0" style="stop-color:#CCCCCC"/>
		<stop  offset="0.0986" style="stop-color:#E1E1E1"/>
		<stop  offset="0.2166" style="stop-color:#F2F2F2"/>
		<stop  offset="0.3453" style="stop-color:#FCFCFC"/>
		<stop  offset="0.503" style="stop-color:#FFFFFF"/>
		<stop  offset="0.6423" style="stop-color:#FBFBFB"/>
		<stop  offset="0.7816" style="stop-color:#EFEFEF"/>
		<stop  offset="0.9204" style="stop-color:#DBDBDB"/>
		<stop  offset="1" style="stop-color:#CCCCCC"/>
	</linearGradient>
	<polygon fill="url(#SVGID_2_)" stroke="#666666" stroke-width="0.5" points="198.476,197.355 328.407,246.393 298.913,280 
		175.626,280 105.641,249.148 	"/>
	
		<text transform="matrix(0.5387 0.2232 -0.5821 0.8131 195.9653 209.9873)" font-family="'FranklinGothic-HeavyItalic'" font-size="11.1219">Work Time Sheet</text>
	<line fill="none" stroke="#999999" stroke-width="0.5" x1="195.591" y1="217.424" x2="286.739" y2="255.017"/>
	<line fill="none" stroke="#999999" stroke-width="0.5" x1="188.615" y1="224.044" x2="278.261" y2="262.534"/>
	<line fill="none" stroke="#999999" stroke-width="0.5" x1="180.18" y1="229.414" x2="270.139" y2="269.961"/>
	<line fill="none" stroke="#999999" stroke-width="0.5" x1="169.604" y1="235.35" x2="262.223" y2="277.2"/>
	<line fill="none" stroke="#999999" stroke-width="0.5" x1="160.871" y1="240.658" x2="243.913" y2="279.051"/>
	<line fill="none" stroke="#999999" stroke-width="0.5" x1="150.246" y1="247.438" x2="217.9" y2="278.177"/>
	<line fill="none" stroke="#666666" stroke-width="0.5" x1="237.637" y1="280" x2="237.476" y2="280"/>
	<line fill="none" stroke="#666666" stroke-width="0.5" x1="275.134" y1="244.762" x2="237.637" y2="279.051"/>
	<line fill="none" stroke="#666666" stroke-width="0.5" x1="290.654" y1="251.201" x2="260.199" y2="279.051"/>
	
		<text transform="matrix(0.4318 0.1893 -0.7305 0.683 273.4844 247.4912)" font-family="'FranklinGothic-MediumItalic'" font-size="12.1553">Hours</text>
</g>
<g id="logo">
	<g id="g2956" transform="translate(-11.316947,-12.866278)">
		<g id="g2958" transform="matrix(2.396429,0,0,2.396429,-440.3068,-2735.148)">
			
				<linearGradient id="p0_1_" gradientUnits="userSpaceOnUse" x1="268.9399" y1="978.5655" x2="215.2591" y2="925.1339" gradientTransform="matrix(2.1105 0 0 -2.7211 -323.2769 3834.9341)">
				<stop  offset="0" style="stop-color:#4DAD2C"/>
				<stop  offset="1" style="stop-color:#E3FF86"/>
			</linearGradient>
			<path id="p0" fill="url(#p0_1_)" stroke="#000000" stroke-width="0.8118" d="M198.147,1181.748l37.395-8.63l11.506,2.877
				l-2.877,46.024l-34.518,14.383l-11.506-8.63V1181.748L198.147,1181.748z"/>
			
				<linearGradient id="path2961_1_" gradientUnits="userSpaceOnUse" x1="369.574" y1="1144.4534" x2="427.7592" y2="1144.4534" gradientTransform="matrix(1.0747 0 0 -5.3437 -205.6771 7324.2856)">
				<stop  offset="0" style="stop-color:#FFFFFF"/>
				<stop  offset="1" style="stop-color:#FFFFFF;stop-opacity:0"/>
			</linearGradient>
			<path id="path2961" fill="url(#path2961_1_)" d="M199.332,1182.721v44.07l10.438,7.829v-47.839
				C204.425,1186.718,200.515,1184.218,199.332,1182.721L199.332,1182.721z"/>
			
				<linearGradient id="p2_2_" gradientUnits="userSpaceOnUse" x1="180.0572" y1="540.3675" x2="175.5229" y2="546.6103" gradientTransform="matrix(4.6934 0 0 -1.2236 -616.7391 1842.4519)">
				<stop  offset="0" style="stop-color:#D9D9B4"/>
				<stop  offset="1" style="stop-color:#A3A36B"/>
			</linearGradient>
			<path id="p2" fill="url(#p2_2_)" stroke="#000000" stroke-width="0.8118" stroke-opacity="0.1961" d="M201.871,1182.016
				c1.553,1.575,4.111,3.007,7.673,3.147l34.721-9.489l-7.482-1.8L201.871,1182.016z"/>
			
				<linearGradient id="path2964_1_" gradientUnits="userSpaceOnUse" x1="244.3185" y1="877.2972" x2="246.1478" y2="834.5403" gradientTransform="matrix(2.3757 0 0 -2.4174 -353.3318 3290.7173)">
				<stop  offset="0" style="stop-color:#FFFFFF"/>
				<stop  offset="1" style="stop-color:#FFFFFF;stop-opacity:0"/>
			</linearGradient>
			<path id="path2964" fill="url(#path2964_1_)" d="M211.364,1186.809l33.487-9.336l-0.609,19.89
				c-1.15,21.784-25.234-15.289-32.879,13.192V1186.809z"/>
			
				<linearGradient id="p4_1_" gradientUnits="userSpaceOnUse" x1="272.6824" y1="974.5695" x2="280.1685" y2="989.0345" gradientTransform="matrix(1.7912 0 0 -3.2062 -286.6204 4332.5317)">
				<stop  offset="0" style="stop-color:#FF0B00"/>
				<stop  offset="1" style="stop-color:#810500"/>
			</linearGradient>
			<path id="p4" fill="url(#p4_1_)" stroke="#000000" stroke-width="0.8118" stroke-opacity="0.3922" d="M198.302,1190.089
				c2.87,2.775,7.032,4.832,11.337,4.736l-0.143,16.36c-3.779-0.383-8.993-2.344-11.05-5.453L198.302,1190.089L198.302,1190.089z"/>
			
				<linearGradient id="path2967_1_" gradientUnits="userSpaceOnUse" x1="257.0468" y1="939.3213" x2="258.5202" y2="925.089" gradientTransform="matrix(1.9988 0 0 -2.8732 -310.4685 3889.3784)">
				<stop  offset="0" style="stop-color:#FFFFFF"/>
				<stop  offset="1" style="stop-color:#FFFFFF;stop-opacity:0"/>
			</linearGradient>
			<path id="path2967" fill="url(#path2967_1_)" d="M199.271,1192.373c1.759,2.03,6.144,3.819,9.12,3.616
				c0,2.977,0.535,7.232-0.918,8.21c-2.756,1.854-4.295-8.366-8.083-3.183C199.255,1198.242,199.407,1195.146,199.271,1192.373
				L199.271,1192.373z"/>
			<g id="p6">
				
					<linearGradient id="p2_3_" gradientUnits="userSpaceOnUse" x1="180.0572" y1="540.3675" x2="175.5229" y2="546.6103" gradientTransform="matrix(4.6934 0 0 -1.2236 -616.7391 1842.4519)">
					<stop  offset="0" style="stop-color:#D9D9B4"/>
					<stop  offset="1" style="stop-color:#A3A36B"/>
				</linearGradient>
				<path id="p2_1_" fill="url(#p2_3_)" stroke="#000000" stroke-width="0.8118" stroke-opacity="0.1961" d="M201.871,1182.016
					c1.553,1.575,4.111,3.007,7.673,3.147l34.721-9.489l-7.482-1.8L201.871,1182.016z"/>
			</g>
		</g>
		<g id="g2970" transform="matrix(2.396429,0,0,2.396429,-440.3068,-2735.148)">
			
				<radialGradient id="p7_2_" cx="220.169" cy="507.5284" r="36.1465" gradientTransform="matrix(2.0178 -0.4353 0.0438 -1.2121 -223.4617 1941.0522)" gradientUnits="userSpaceOnUse">
				<stop  offset="0" style="stop-color:#000000;stop-opacity:0.3922"/>
				<stop  offset="1" style="stop-color:#000000;stop-opacity:0"/>
			</radialGradient>
			<path id="p7" fill="url(#p7_2_)" d="M273.46,1223.472c-0.365,10.097-14.287,21.222-31.096,24.848
				c-16.809,3.626-30.14-1.62-29.775-11.717c0.365-10.097,14.286-21.222,31.095-24.848
				C260.494,1208.129,273.825,1213.375,273.46,1223.472z"/>
			<g id="use2973" transform="matrix(0.989851,-0.142114,0.122312,0.85192,-145.3651,225.5584)">
				
					<radialGradient id="p7_3_" cx="214.8804" cy="492.4388" r="36.147" gradientTransform="matrix(1.9441 -0.6576 -0.1049 -1.0388 -121.9117 1889.4229)" gradientUnits="userSpaceOnUse">
					<stop  offset="0" style="stop-color:#000000;stop-opacity:0.3922"/>
					<stop  offset="1" style="stop-color:#000000;stop-opacity:0"/>
				</radialGradient>
				<path id="p7_1_" fill="url(#p7_3_)" d="M273.503,1226.653c0.875,8.654-11.546,20.11-27.741,25.588
					c-16.195,5.478-30.032,2.903-30.906-5.75c-0.874-8.654,11.546-20.11,27.741-25.588
					C258.792,1215.425,272.629,1218,273.503,1226.653z"/>
			</g>
		</g>
		<g id="g2975" transform="matrix(2.396429,0,0,2.396429,-440.3068,-2735.148)">
			
				<linearGradient id="p9_1_" gradientUnits="userSpaceOnUse" x1="224.4963" y1="821.9753" x2="229.2535" y2="866.3515" gradientTransform="matrix(2.8181 0 0 -2.0378 -403.6616 2925.959)">
				<stop  offset="0" style="stop-color:#B6E8FF"/>
				<stop  offset="1" style="stop-color:#2389DB"/>
			</linearGradient>
			<path id="p9" fill="url(#p9_1_)" stroke="#000000" stroke-width="0.8118" d="M195.676,1227.366l43.148-17.259l28.765,17.259
				v11.506l-43.148,23.013l-28.765-23.013V1227.366z"/>
			
				<linearGradient id="p10_2_" gradientUnits="userSpaceOnUse" x1="190.6147" y1="679.7236" x2="237.0644" y2="679.7236" gradientTransform="matrix(3.6299 0 0 -1.5821 -495.9143 2319.4331)">
				<stop  offset="0" style="stop-color:#D9D9B4"/>
				<stop  offset="1" style="stop-color:#A3A36B"/>
			</linearGradient>
			<path id="p10" fill="url(#p10_2_)" stroke="#000000" stroke-width="1.6236" stroke-opacity="0.1961" d="M267.032,1228.531
				l-42.621,21.745l-28.124-20.731l-0.29,7.248l28.559,22.76l42.214-22.324L267.032,1228.531L267.032,1228.531z"/>
			
				<linearGradient id="path2979_1_" gradientUnits="userSpaceOnUse" x1="191.2091" y1="566.9814" x2="208.7733" y2="505.6445" gradientTransform="matrix(3.8703 0 0 -1.4838 -523.1974 2048.7561)">
				<stop  offset="0" style="stop-color:#FFFFFF"/>
				<stop  offset="1" style="stop-color:#FFFFFF;stop-opacity:0"/>
			</linearGradient>
			<path id="path2979" fill="url(#path2979_1_)" d="M199.104,1227.869l39.609-16.36l26.119,16.073
				c-5.071,2.583-12.617,6.195-17.221,6.888C226.961,1237.578,233.546,1223.851,199.104,1227.869z"/>
			
				<linearGradient id="p12_1_" gradientUnits="userSpaceOnUse" x1="213.756" y1="671.9627" x2="213.756" y2="698.9528" gradientTransform="matrix(3.2645 0 0 -1.7592 -454.2729 2415.0984)">
				<stop  offset="0" style="stop-color:#FF0B00"/>
				<stop  offset="1" style="stop-color:#810500"/>
			</linearGradient>
			<path id="p12" fill="url(#p12_1_)" stroke="#000000" stroke-width="0.8118" stroke-opacity="0.3922" d="M238.56,1213.193
				l-12.583,5.277l22.933,14.004l12.178-5.276L238.56,1213.193z"/>
			<g id="p13">
				
					<linearGradient id="p10_3_" gradientUnits="userSpaceOnUse" x1="190.6147" y1="679.7236" x2="237.0644" y2="679.7236" gradientTransform="matrix(3.6299 0 0 -1.5821 -495.9143 2319.4331)">
					<stop  offset="0" style="stop-color:#D9D9B4"/>
					<stop  offset="1" style="stop-color:#A3A36B"/>
				</linearGradient>
				<path id="p10_1_" fill="url(#p10_3_)" stroke="#000000" stroke-width="1.6236" stroke-opacity="0.1961" d="M267.032,1228.531
					l-42.621,21.745l-28.124-20.731l-0.29,7.248l28.559,22.76l42.214-22.324L267.032,1228.531L267.032,1228.531z"/>
			</g>
			
				<linearGradient id="path2983_1_" gradientUnits="userSpaceOnUse" x1="206.6181" y1="589.0712" x2="200.1334" y2="595.2095" gradientTransform="matrix(3.6299 0 0 -1.5821 -495.9143 2179.4329)">
				<stop  offset="0" style="stop-color:#FFFFFF"/>
				<stop  offset="1" style="stop-color:#FFFFFF;stop-opacity:0"/>
			</linearGradient>
			<path id="path2983" fill="url(#path2983_1_)" d="M267.032,1228.531l-42.621,21.745l0.145,9.277l42.214-22.324L267.032,1228.531
				L267.032,1228.531z"/>
			
				<linearGradient id="path2985_1_" gradientUnits="userSpaceOnUse" x1="192.333" y1="589.3715" x2="198.4248" y2="593.5359" gradientTransform="matrix(3.6299 0 0 -1.5821 -495.9143 2179.4329)">
				<stop  offset="0" style="stop-color:#FFFFFF"/>
				<stop  offset="1" style="stop-color:#FFFFFF;stop-opacity:0"/>
			</linearGradient>
			<path id="path2985" fill="url(#path2985_1_)" d="M224.412,1250.276l-28.124-20.731l-0.29,7.248l28.559,22.76L224.412,1250.276z"
				/>
			
				<linearGradient id="p16_1_" gradientUnits="userSpaceOnUse" x1="242.5183" y1="883.3433" x2="246.5208" y2="903.5721" gradientTransform="matrix(2.1742 0 0 -2.6413 -330.6254 3588.8811)">
				<stop  offset="0" style="stop-color:#FF0B00"/>
				<stop  offset="1" style="stop-color:#810500"/>
			</linearGradient>
			<path id="p16" fill="url(#p16_1_)" stroke="#000000" stroke-width="0.8118" d="M198.972,1234.655
				c2.725,2.253,5.45,4.506,8.175,6.759c-3.429,1.141-4.017,13.648-11.506,14.383c1.274-4.28,1.329-6.733,1.386-9.997
				c-1.974,1.2-5.165,2.197-7.139,1.368C195.351,1243.199,195.944,1235.375,198.972,1234.655L198.972,1234.655z"/>
			
				<linearGradient id="path2988_1_" gradientUnits="userSpaceOnUse" x1="236.1689" y1="863.6329" x2="236.2044" y2="847.1383" gradientTransform="matrix(2.3129 0 0 -2.483 -346.276 3378.0432)">
				<stop  offset="0" style="stop-color:#FFFFFF"/>
				<stop  offset="1" style="stop-color:#FFFFFF;stop-opacity:0"/>
			</linearGradient>
			<path id="path2988" fill="url(#path2988_1_)" d="M198.166,1236.574c-0.766,0.519-1.693,3.589-2.793,5.79
				c2.583-2.535,3.531,5.806,6.027,5.597c1.479-0.125,2.371-3.517,3.123-5.527C205.218,1240.572,199.357,1235.767,198.166,1236.574z
				"/>
			
				<linearGradient id="path2990_1_" gradientUnits="userSpaceOnUse" x1="215.5248" y1="685.9683" x2="204.4197" y2="640.0171" gradientTransform="matrix(3.2645 0 0 -1.7592 -454.2729 2415.0984)">
				<stop  offset="0" style="stop-color:#FFFFFF"/>
				<stop  offset="1" style="stop-color:#FFFFFF;stop-opacity:0"/>
			</linearGradient>
			<path id="path2990" fill="url(#path2990_1_)" d="M238.459,1214.411l-10.148,4.16c9.708-2.977,15.225,4.824,20.803,9.336
				c3.862,3.124,12.042-0.778,6.393-3.349L238.459,1214.411z"/>
		</g>
	</g>
	<g id="g3291" transform="matrix(1.0733557,0,0,1.0733557,-120.84695,6.016723)">
		<g id="g116" transform="matrix(0.470249,0,0,0.470249,247.6427,22.93711)">
			
				<linearGradient id="path137_1_" gradientUnits="userSpaceOnUse" x1="117.6291" y1="-392.0064" x2="117.6291" y2="-98.113" gradientTransform="matrix(0.5047 0 0 -0.5047 -73.2849 99.3298)">
				<stop  offset="0.0056" style="stop-color:#ED0000"/>
				<stop  offset="0.5449" style="stop-color:#8D0000"/>
				<stop  offset="1" style="stop-color:#BD0000"/>
			</linearGradient>
			<path id="path137" fill="url(#path137_1_)" d="M-169.17,150.244c0,85.607,69.647,155.254,155.256,155.254
				c85.604,0,155.249-69.648,155.249-155.254c0-85.608-69.646-155.256-155.249-155.256C-99.523-5.013-169.17,64.636-169.17,150.244z
				"/>
			
				<linearGradient id="path158_1_" gradientUnits="userSpaceOnUse" x1="117.6329" y1="-391.9532" x2="117.6329" y2="-98.0513" gradientTransform="matrix(0.5047 0 0 -0.5047 -73.2849 99.3298)">
				<stop  offset="0.0056" style="stop-color:#FF4242"/>
				<stop  offset="0.573" style="stop-color:#FF9494"/>
				<stop  offset="1" style="stop-color:#FFDCDC"/>
			</linearGradient>
			<path id="path158" fill="url(#path158_1_)" d="M-159.831,150.244c0,80.456,65.459,145.915,145.917,145.915
				c80.457,0,145.914-65.459,145.914-145.915c0-80.458-65.457-145.918-145.914-145.918
				C-94.372,4.325-159.831,69.785-159.831,150.244z"/>
			
				<linearGradient id="path179_1_" gradientUnits="userSpaceOnUse" x1="117.6378" y1="-380.215" x2="117.6378" y2="-98.2203" gradientTransform="matrix(0.5047 0 0 -0.5047 -73.2849 99.3298)">
				<stop  offset="0" style="stop-color:#FFFFFF"/>
				<stop  offset="0.5" style="stop-color:#FF0000"/>
				<stop  offset="1" style="stop-color:#FFC9C9"/>
			</linearGradient>
			<path id="path179" fill="url(#path179_1_)" d="M-154.903,150.244c0,77.746,63.25,140.982,140.989,140.982
				c77.742,0,140.99-63.236,140.99-140.982c0-77.739-63.248-140.988-140.99-140.988C-91.653,9.255-154.903,72.505-154.903,150.244z"
				/>
			<path id="path181" opacity="0.8" fill="#FFFFFF" enable-background="new    " d="M-13.914,26.869
				c-70.804,0-128.411,57.598-128.411,128.409c0,70.799,57.608,128.395,128.411,128.395c70.808,0,128.407-57.596,128.407-128.395
				C114.494,84.467,56.894,26.869-13.914,26.869z"/>
			<path id="path183" fill="#8D0000" d="M-142.325,150.244c0,70.808,57.608,128.396,128.411,128.396
				c70.808,0,128.407-57.588,128.407-128.396c0-70.804-57.6-128.407-128.407-128.407C-84.717,21.836-142.325,79.44-142.325,150.244z
				"/>
			
				<radialGradient id="path210_1_" cx="-168.8681" cy="-117.7902" r="88.292" gradientTransform="matrix(0.7161 0 0 -0.7161 107.0135 65.8901)" gradientUnits="userSpaceOnUse">
				<stop  offset="0.6011" style="stop-color:#FFFFFF"/>
				<stop  offset="0.8764" style="stop-color:#EAEAF0"/>
				<stop  offset="0.9142" style="stop-color:#E6E6ED"/>
				<stop  offset="0.95" style="stop-color:#DBDBE5"/>
				<stop  offset="0.9849" style="stop-color:#C8C8D7"/>
				<stop  offset="1" style="stop-color:#BDBDCF"/>
			</radialGradient>
			<path id="path210" fill="url(#path210_1_)" d="M-139.18,150.244c0,69.066,56.193,125.256,125.266,125.256
				c69.072,0,125.267-56.189,125.267-125.256c0-69.07-56.195-125.263-125.267-125.263C-82.987,24.98-139.18,81.173-139.18,150.244z"
				/>
			<path id="path212" fill="#771111" d="M-128.816,146.148c-1.392,0-2.525,1.131-2.525,2.526v3.136c0,1.394,1.133,2.525,2.525,2.525
				h22.013c1.394,0,2.522-1.131,2.522-2.525v-3.136c0-1.395-1.128-2.526-2.522-2.526H-128.816z"/>
			<rect id="rect214" x="-128.816" y="148.673" fill="#A00000" width="22.013" height="3.136"/>
			<path id="path216" fill="#771111" d="M78.289,146.148c-1.392,0-2.525,1.131-2.525,2.526v3.136c0,1.394,1.133,2.525,2.525,2.525
				h22.018c1.398,0,2.525-1.131,2.525-2.525v-3.136c0-1.395-1.127-2.526-2.525-2.526H78.289L78.289,146.148z"/>
			<rect id="rect218" x="78.289" y="148.673" fill="#A00000" width="22.018" height="3.136"/>
			<path id="path220" fill="#771111" d="M-15.486,239.921c-1.394,0-2.524,1.136-2.524,2.525v22.014c0,1.389,1.13,2.519,2.524,2.519
				h3.146c1.393,0,2.525-1.13,2.525-2.519v-22.014c0-1.389-1.132-2.525-2.525-2.525H-15.486z"/>
			<rect id="rect222" x="-15.486" y="242.446" fill="#A00000" width="3.146" height="22.014"/>
			<path id="path224" fill="#771111" d="M-15.486,32.818c-1.394,0-2.524,1.131-2.524,2.525v22.009c0,1.395,1.13,2.525,2.524,2.525
				h3.146c1.393,0,2.525-1.13,2.525-2.525V35.343c0-1.394-1.132-2.525-2.525-2.525H-15.486L-15.486,32.818z"/>
			<rect id="rect226" x="-15.486" y="35.343" fill="#A00000" width="3.146" height="22.009"/>
			
				<linearGradient id="path412_1_" gradientUnits="userSpaceOnUse" x1="91.9828" y1="-89.8396" x2="117.3946" y2="-89.8396" gradientTransform="matrix(0.5047 0 0 -0.5047 -73.2849 99.3298)">
				<stop  offset="0" style="stop-color:#FFFFFF"/>
				<stop  offset="1" style="stop-color:#585868"/>
			</linearGradient>
			<path id="path412" fill="url(#path412_1_)" d="M-4.15,146.998c-1.366-4.093-5.224-7.054-9.768-7.054
				c-5.338,0-9.738,4.081-10.247,9.29C-17.429,149.719-10.618,149.206-4.15,146.998z"/>
		</g>
		<g id="g3285" transform="matrix(0.983242,-0.182303,0.182303,0.983242,-10.45843,57.70537)">
			<path id="path7082" fill="none" stroke="#E0E0E0" stroke-width="9.6041" stroke-linecap="round" stroke-linejoin="round" d="
				M214.054,37.61l26.05,45.12"/>
			<path id="path8059" fill="none" stroke="#BFBFBF" stroke-width="9.6041" stroke-linecap="round" stroke-linejoin="round" d="
				M240.103,30.63l0.001,52.099"/>
			<path id="path8061" fill="none" stroke="#808080" stroke-width="9.6041" stroke-linecap="round" stroke-linejoin="round" d="
				M266.155,37.611L240.103,82.73"/>
			<path id="path8063" fill="none" stroke="#000000" stroke-width="9.6041" stroke-linecap="round" stroke-linejoin="round" d="
				M205.68,62.855l34.425,19.875l45.119-26.05"/>
		</g>
	</g>
	<g>
		<g>
			<path fill="#313431" d="M192.856,128.282c2.468,1.369,4.249,2.84,5.345,4.414c1.095,1.573,1.414,3.052,0.957,4.437
				c-0.377,1.142-1.114,1.979-2.211,2.512c-1.099,0.531-2.242,0.601-3.434,0.207c-1.177-0.389-2.043-1.133-2.601-2.236
				c-0.559-1.103-0.646-2.231-0.265-3.388c0.33-0.999,0.928-1.772,1.793-2.317c0.866-0.546,1.896-0.748,3.088-0.607
				c-0.968-0.921-2.054-1.684-3.257-2.287l-5.616,7.599c3.208,4.162,5.021,6.922,5.438,8.278c0.417,1.357,0.422,2.649,0.017,3.877
				c-0.858,2.599-2.905,4.56-6.139,5.882s-7.449,1.229-12.643-0.28l-2.402,3.197l-1.235-0.408l2.388-3.083
				c-0.407-0.103-0.956-0.268-1.646-0.495c-0.413-0.137-0.738-0.26-0.979-0.371l-2.367,3.09l-1.147-0.379l2.453-3.275
				c-2.648-1.317-4.58-2.846-5.791-4.584c-1.212-1.738-1.574-3.35-1.084-4.834c0.358-1.085,1.089-1.889,2.192-2.412
				c1.102-0.522,2.234-0.592,3.396-0.208c1.177,0.389,2.042,1.126,2.598,2.211c0.554,1.086,0.638,2.215,0.251,3.385
				c-0.674,2.042-2.31,2.997-4.91,2.867c1.313,1.257,2.629,2.19,3.945,2.799l7.031-9.435c-2.979-3.675-4.666-6.203-5.057-7.583
				c-0.394-1.38-0.411-2.613-0.053-3.698c0.792-2.398,2.732-4.109,5.818-5.133c3.086-1.023,6.839-0.916,11.26,0.322l1.586-2.065
				l1.17,0.387l-1.587,2.064l0.155,0.052c0.617,0.204,1.407,0.528,2.371,0.972l1.688-2.221l1.213,0.4L192.856,128.282z
				 M178.409,145.505l-1.579-2.185l-6.807,9.057l0.729,0.24c0.838,0.277,1.497,0.456,1.976,0.534L178.409,145.505z M174.028,153.438
				c1.884,0.369,3.418,0.354,4.604-0.048c1.184-0.399,1.955-1.143,2.313-2.229c0.396-1.199-0.181-2.735-1.732-4.608L174.028,153.438
				z M187.321,127.333c-1.502-0.337-2.728-0.386-3.671-0.144c-0.945,0.243-1.538,0.728-1.778,1.456
				c-0.316,0.957,0.18,2.292,1.491,4.007L187.321,127.333z M191.072,128.572l-1.111-0.414l-0.419-0.139
				c-0.397-0.131-0.763-0.236-1.096-0.314l-4.332,5.86l1.723,2.042L191.072,128.572z"/>
		</g>
		<g>
			<path fill="#808080" d="M192.259,127.445c2.468,1.369,4.25,2.84,5.347,4.414c1.095,1.572,1.414,3.052,0.957,4.436
				c-0.377,1.143-1.114,1.979-2.211,2.512c-1.099,0.533-2.242,0.602-3.434,0.208c-1.177-0.389-2.044-1.133-2.601-2.236
				c-0.559-1.103-0.646-2.231-0.265-3.388c0.33-1,0.928-1.772,1.793-2.317c0.865-0.546,1.894-0.748,3.088-0.607
				c-0.968-0.921-2.054-1.684-3.258-2.288l-5.616,7.598c3.209,4.163,5.021,6.923,5.438,8.28c0.417,1.356,0.422,2.648,0.016,3.876
				c-0.858,2.599-2.904,4.56-6.138,5.882c-3.235,1.322-7.45,1.229-12.643-0.28l-2.402,3.197l-1.235-0.408l2.388-3.083
				c-0.407-0.102-0.956-0.268-1.647-0.496c-0.412-0.136-0.737-0.259-0.979-0.37l-2.367,3.09l-1.146-0.379l2.453-3.275
				c-2.648-1.317-4.58-2.846-5.791-4.583c-1.213-1.739-1.575-3.351-1.084-4.835c0.358-1.085,1.089-1.89,2.192-2.412
				c1.102-0.522,2.234-0.592,3.396-0.208c1.177,0.389,2.042,1.125,2.597,2.211c0.556,1.086,0.639,2.215,0.252,3.385
				c-0.674,2.042-2.31,2.998-4.91,2.867c1.313,1.258,2.628,2.19,3.945,2.799l7.031-9.434c-2.98-3.676-4.666-6.204-5.057-7.584
				c-0.393-1.38-0.411-2.613-0.053-3.698c0.792-2.398,2.732-4.109,5.818-5.133c3.087-1.023,6.84-0.916,11.259,0.322l1.587-2.065
				l1.169,0.386l-1.586,2.065l0.154,0.051c0.618,0.204,1.408,0.528,2.37,0.972l1.689-2.221l1.213,0.4L192.259,127.445z
				 M177.814,144.668l-1.58-2.185l-6.807,9.057l0.728,0.241c0.839,0.276,1.498,0.455,1.977,0.533L177.814,144.668z M173.432,152.601
				c1.885,0.369,3.419,0.354,4.604-0.047c1.185-0.4,1.956-1.144,2.314-2.229c0.396-1.199-0.182-2.736-1.731-4.609L173.432,152.601z
				 M186.725,126.496c-1.503-0.337-2.728-0.385-3.67-0.144c-0.946,0.243-1.538,0.728-1.778,1.456
				c-0.316,0.957,0.18,2.292,1.491,4.007L186.725,126.496z M190.476,127.735l-1.112-0.414l-0.419-0.139
				c-0.396-0.131-0.762-0.236-1.095-0.314l-4.332,5.86l1.723,2.042L190.476,127.735z"/>
		</g>
	</g>
	<g>
		<g>
			<path fill="#313431" d="M219.375,153.904c3.066,1.703,5.283,3.531,6.645,5.488c1.362,1.955,1.759,3.793,1.19,5.515
				c-0.469,1.421-1.386,2.461-2.75,3.122c-1.364,0.662-2.786,0.748-4.269,0.259c-1.463-0.483-2.541-1.409-3.233-2.78
				c-0.693-1.37-0.803-2.774-0.328-4.212c0.41-1.242,1.153-2.203,2.229-2.882c1.076-0.678,2.355-0.929,3.839-0.754
				c-1.204-1.146-2.555-2.094-4.049-2.843l-6.983,9.444c3.989,5.176,6.243,8.607,6.762,10.294c0.518,1.687,0.524,3.294,0.021,4.819
				c-1.067,3.23-3.611,5.668-7.632,7.313s-9.261,1.527-15.719-0.349l-2.986,3.975l-1.535-0.507l2.968-3.832
				c-0.505-0.128-1.188-0.334-2.046-0.617c-0.513-0.17-0.918-0.323-1.217-0.461l-2.942,3.842l-1.426-0.472l3.047-4.071
				c-3.292-1.639-5.692-3.538-7.199-5.699c-1.508-2.161-1.955-4.164-1.346-6.01c0.445-1.35,1.353-2.349,2.724-2.998
				c1.37-0.65,2.776-0.736,4.222-0.26c1.463,0.483,2.54,1.4,3.229,2.749c0.689,1.35,0.794,2.753,0.314,4.208
				c-0.838,2.538-2.874,3.727-6.104,3.564c1.633,1.563,3.268,2.724,4.904,3.48l8.741-11.729c-3.703-4.569-5.799-7.712-6.287-9.429
				c-0.489-1.715-0.509-3.248-0.063-4.597c0.985-2.982,3.395-5.108,7.233-6.382c3.836-1.271,8.502-1.138,13.998,0.4l1.974-2.566
				l1.452,0.48l-1.972,2.566l0.191,0.063c0.768,0.254,1.751,0.657,2.947,1.21l2.098-2.762l1.509,0.499L219.375,153.904z
				 M201.414,175.315l-1.963-2.715l-8.464,11.259l0.906,0.3c1.042,0.345,1.86,0.565,2.458,0.664L201.414,175.315z M195.967,185.18
				c2.342,0.459,4.25,0.439,5.724-0.06c1.473-0.497,2.432-1.421,2.877-2.771c0.492-1.49-0.227-3.4-2.154-5.729L195.967,185.18z
				 M212.494,152.724c-1.869-0.42-3.391-0.479-4.566-0.178c-1.174,0.301-1.911,0.904-2.21,1.81c-0.393,1.189,0.226,2.85,1.854,4.981
				L212.494,152.724z M217.156,154.265l-1.381-0.516l-0.521-0.172c-0.494-0.163-0.948-0.293-1.361-0.391l-5.387,7.285l2.144,2.539
				L217.156,154.265z"/>
		</g>
		<g>
			<path fill="#666666" d="M218.632,152.864c3.067,1.702,5.284,3.531,6.646,5.487c1.361,1.955,1.759,3.793,1.189,5.515
				c-0.469,1.421-1.385,2.462-2.749,3.123s-2.787,0.747-4.269,0.259c-1.463-0.483-2.541-1.41-3.234-2.781
				c-0.693-1.37-0.803-2.774-0.328-4.212c0.41-1.242,1.153-2.203,2.229-2.881c1.075-0.679,2.355-0.93,3.84-0.755
				c-1.205-1.146-2.555-2.094-4.051-2.843l-6.982,9.445c3.989,5.176,6.243,8.606,6.762,10.294c0.517,1.687,0.523,3.293,0.02,4.819
				c-1.066,3.229-3.61,5.667-7.632,7.312c-4.021,1.645-9.26,1.528-15.718-0.348l-2.986,3.975l-1.536-0.508l2.969-3.832
				c-0.505-0.128-1.188-0.334-2.047-0.617c-0.513-0.17-0.918-0.322-1.217-0.461l-2.942,3.842l-1.426-0.471l3.047-4.072
				c-3.292-1.638-5.691-3.537-7.197-5.699c-1.509-2.16-1.957-4.164-1.347-6.01c0.445-1.349,1.354-2.348,2.724-2.998
				c1.37-0.649,2.777-0.736,4.222-0.26c1.463,0.484,2.54,1.4,3.229,2.75s0.796,2.752,0.315,4.207
				c-0.838,2.539-2.875,3.727-6.106,3.564c1.634,1.563,3.269,2.724,4.904,3.48l8.741-11.729c-3.704-4.569-5.799-7.711-6.286-9.428
				c-0.489-1.716-0.51-3.249-0.064-4.598c0.985-2.981,3.395-5.108,7.233-6.381c3.836-1.272,8.502-1.139,13.997,0.399l1.974-2.565
				l1.453,0.479l-1.973,2.566l0.191,0.063c0.769,0.253,1.751,0.657,2.947,1.21l2.098-2.762l1.509,0.498L218.632,152.864z
				 M200.671,174.274l-1.962-2.714l-8.465,11.259l0.906,0.299c1.042,0.345,1.861,0.565,2.458,0.665L200.671,174.274z
				 M195.225,184.138c2.342,0.459,4.25,0.439,5.723-0.059s2.432-1.421,2.878-2.771c0.492-1.491-0.227-3.401-2.154-5.729
				L195.225,184.138z M211.751,151.684c-1.869-0.42-3.391-0.479-4.564-0.179c-1.175,0.301-1.911,0.904-2.21,1.81
				c-0.393,1.189,0.225,2.85,1.853,4.981L211.751,151.684z M216.414,153.224l-1.382-0.516l-0.521-0.172
				c-0.493-0.163-0.948-0.293-1.361-0.391l-5.388,7.286l2.144,2.538L216.414,153.224z"/>
		</g>
	</g>
</g>
<g id="text">
	<g>
		<path fill="#000047" stroke="#FFFFFF" d="M243.45,47.07h-12.899V35.745h39.598V47.07h-13.124v39.224H243.45V47.07z"/>
		<path fill="#000047" stroke="#FFFFFF" d="M303.599,77.294c0,3.675,0.15,7.125,0.601,9h-12.15l-0.75-3.225h-0.225
			c-2.625,2.925-6.299,4.05-10.274,4.05c-7.499,0-12.149-5.475-12.149-11.625c0-9.9,8.85-14.25,21.374-14.325v-0.3
			c0-1.5-1.125-3.15-5.999-3.15c-3.9,0-8.025,1.35-10.426,2.775l-2.399-8.625c2.399-1.2,7.649-3.3,15.3-3.3
			c12.674,0,17.099,7.05,17.099,16.274V77.294z M290.475,69.419c-5.475,0-8.625,1.575-8.625,4.8c0,2.325,1.575,3.525,3.825,3.525
			c1.95,0,4.05-1.35,4.649-3.375c0.15-0.6,0.15-1.275,0.15-1.95V69.419z"/>
		<path fill="#000047" stroke="#FFFFFF" d="M312.225,74.969c2.1,1.275,6.899,2.775,10.274,2.775c2.85,0,3.975-0.675,3.975-2.025
			c0-1.35-0.825-1.95-4.8-3.225c-8.1-2.55-10.874-6.975-10.8-11.25c0-7.35,6.226-12.675,15.899-12.675
			c4.575,0,8.625,0.975,11.025,2.1l-2.176,9.149c-1.725-0.825-5.175-2.025-8.174-2.025c-2.325,0-3.675,0.6-3.675,2.1
			c0,1.2,1.199,1.95,5.549,3.375c7.275,2.4,10.05,6.149,10.125,11.475c0,7.049-5.475,12.375-16.874,12.375
			c-5.1,0-9.675-1.125-12.6-2.625L312.225,74.969z"/>
		<path fill="#000047" stroke="#FFFFFF" d="M359.248,64.394h0.15c0.824-1.65,1.574-3.15,2.399-4.5l6.075-10.5h16.124l-12.749,14.849
			l14.624,22.049h-16.649l-7.274-14.1l-2.7,3.6v10.5h-13.499V33.045h13.499V64.394z"/>
		<path fill="#000047" stroke="#FFFFFF" d="M243.45,112.07h-12.899v-11.324h39.598v11.324h-13.124v39.224H243.45V112.07z"/>
		<path fill="#000047" stroke="#FFFFFF" d="M287.475,104.195c0,3.6-2.7,6.45-6.975,6.45c-4.2,0-6.825-2.85-6.825-6.45
			c0-3.675,2.7-6.375,6.899-6.375C284.774,97.821,287.399,100.52,287.475,104.195z M273.824,151.294v-36.899h13.5v36.899H273.824z"
			/>
		<path fill="#000047" stroke="#FFFFFF" d="M295.725,126.919c0-4.875-0.15-9.149-0.301-12.524h11.325l0.524,4.575h0.301
			c1.35-1.8,4.574-5.4,10.874-5.4c4.725,0,8.399,2.175,9.975,5.85h0.15c1.5-1.875,3.149-3.375,5.1-4.35
			c1.875-0.975,4.05-1.5,6.524-1.5c7.95,0,12.524,5.775,12.524,15.975v21.75h-13.124v-19.725c0-4.575-1.351-7.2-4.35-7.2
			c-2.176,0-3.525,1.425-4.125,3.15c-0.3,0.75-0.375,1.95-0.375,2.7v21.075h-13.125v-20.1c0-4.125-1.274-6.825-4.274-6.825
			c-2.475,0-3.6,1.8-4.125,3.075c-0.375,0.825-0.375,1.8-0.375,2.7v21.149h-13.124V126.919z"/>
		<path fill="#000047" stroke="#FFFFFF" d="M371.998,137.569c0.45,2.925,4.725,4.575,9.449,4.575c3.525,0,6.825-0.375,10.125-1.425
			l1.725,9c-4.425,1.8-9.225,2.399-13.799,2.399c-12.975,0-20.324-7.199-20.324-18.899c0-8.625,5.55-19.649,19.124-19.649
			c11.925,0,17.024,8.775,17.024,18.899c0,2.25-0.3,4.2-0.525,5.1H371.998z M382.873,128.419c0-2.1-0.976-6-5.25-6
			c-3.976,0-5.55,3.675-5.775,6H382.873z"/>
		<path fill="#000047" stroke="#FFFFFF" d="M401.473,126.844c0-5.85-0.15-9.375-0.301-12.449h11.55l0.45,6.675h0.3
			c1.95-5.625,6.675-7.5,9.825-7.5c1.199,0,1.725,0,2.699,0.225v12.674c-0.975-0.225-2.024-0.375-3.449-0.375
			c-3.976,0-6.675,1.65-7.351,4.649c-0.149,0.675-0.225,1.425-0.225,2.325v18.225h-13.499V126.844z"/>
	</g>
</g>
</svg>
